<svg width="330" height="300" viewBox="0 0 330 300" fill="none" xmlns="http://www.w3.org/2000/svg">
<rect x="150" y="135" width="30" height="30" rx="15" fill="url(#paint0_radial_0_1)"/>
<path d="M30 109L327.317 0.974815C328.621 0.500927 330 1.46688 330 2.85459V47.4602C330 49.0104 329.104 50.4209 327.701 51.0803L30 191V109Z" fill="#606060"/>
<path d="M0 2.85459C0 1.46689 1.3787 0.500929 2.68298 0.974817L300 109V191L2.29855 51.0803C0.895628 50.4209 0 49.0104 0 47.4602V2.85459Z" fill="#1986C3"/>
<path d="M0 252.54C0 250.99 0.895637 249.579 2.29856 248.92L300 109V191L2.68298 299.025C1.3787 299.499 0 298.533 0 297.145V252.54Z" fill="#096090"/>
<path d="M30 109L327.701 248.92C329.104 249.579 330 250.99 330 252.54V297.145C330 298.533 328.621 299.499 327.317 299.025L30 191V109Z" fill="#3E3E3E"/>
<defs>
<radialGradient id="paint0_radial_0_1" cx="0" cy="0" r="1" gradientUnits="userSpaceOnUse" gradientTransform="translate(160.5 147) rotate(57.9946) scale(14.151)">
<stop stop-color="white"/>
<stop offset="1" stop-color="#575757"/>
</radialGradient>
</defs>
</svg>
